PathFileType	4	(X/Y/Z)	C:/Users/opensim2020/Desktop/walking_exp_matlab/subject01_walking10_straight_04.trc																																																																																																																															
DataRate	CameraRate	NumFrames	NumMarkers	Units	OrigDataRate	OrigDataStartFrame	OrigNumFrames																																																																																																																											
100	100	4	43	mm	100	3856	274																																																																																																																											
Frame#	Time	LFHD			RFHD			LBHD			RBHD			C7			T10			CLAV			STRN			RBAK			LSHO			LUPA			LELB			LFRM			LWRA			LWRB			LFIN			RSHO			RUPA			RELB			RFRM			RWRA			RWRB			RFIN			LASI			RASI			LPSI			RPSI			LTHI			LKNE			LTIB			LANK			LHEE			LTOE			RTHI			RKNE			RTIB			RANK			RHEE			RTOE			*39			*40			*41			*42		
		X1	Y1	Z1	X2	Y2	Z2	X3	Y3	Z3	X4	Y4	Z4	X5	Y5	Z5	X6	Y6	Z6	X7	Y7	Z7	X8	Y8	Z8	X9	Y9	Z9	X10	Y10	Z10	X11	Y11	Z11	X12	Y12	Z12	X13	Y13	Z13	X14	Y14	Z14	X15	Y15	Z15	X16	Y16	Z16	X17	Y17	Z17	X18	Y18	Z18	X19	Y19	Z19	X20	Y20	Z20	X21	Y21	Z21	X22	Y22	Z22	X23	Y23	Z23	X24	Y24	Z24	X25	Y25	Z25	X26	Y26	Z26	X27	Y27	Z27	X28	Y28	Z28	X29	Y29	Z29	X30	Y30	Z30	X31	Y31	Z31	X32	Y32	Z32	X33	Y33	Z33	X34	Y34	Z34	X35	Y35	Z35	X36	Y36	Z36	X37	Y37	Z37	X38	Y38	Z38	X39	Y39	Z39	X40	Y40	Z40	X41	Y41	Z41	X42	Y42	Z42	X43	Y43	Z43
																																																																																																																																		
35	0.34	-804.94525	1661.66663	1004.92804	-769.297	1662.95728	1114.57214	-921.62927	1631.76538	1035.9895	-888.15063	1633.12512	1152.64343	-970.8996	1429.66992	1061.25757	-1011.034	1137.23413	1066.04468	-827.51483	1360.92725	1069.45532	-786.99554	1205.78833	1063.34875	-1030.38525	1233.28784	1132.84045	-876.95929	1396.58069	906.47083	-871.42267	1215.0769	815.20782	-850.48059	1064.07898	808.14862	-772.83942	978.27289	788.65637	-657.52844	903.76257	813.37701	-704.09436	876.86627	786.86908	-630.97736	834.0423	779.802	-900.39636	1387.69678	1216.88672	-978.92072	1190.22937	1307.07666	-985.88654	1067.01672	1309.02576	-974.11682	949.09814	1344.98364	-903.07684	824.29803	1339.03308	-951.66016	830.89264	1371.84009	-924.17828	747.26563	1372.62891	-846.55371	924.97198	958.4328	-839.29346	931.97278	1175.32214	-1029.74219	942.88733	1019.55579	-1023.6889	944.30499	1164.99365	-928.6474	596.78998	917.0705	-967.96802	464.97409	932.30792	-1055.98022	295.78088	927.3963	-1122.8291	86.38206	987.56592	-1171.43579	63.51131	1040.66089	-980.60956	38.40059	981.36121	-822.1626	608.34229	1249.39038	-761.9657	465.18024	1221.30859	-756.39343	291.92896	1238.13196	-703.0625	87.22852	1201.03394	-732.77917	32.82227	1150.62231	-558.99133	92.21173	1202.52368	-780.66614	1698.39014	1094.2207	-1973.03015	1023.51056	3101.96313	-2012.5946	1022.18256	3140.64868	NaN	NaN	NaN
36	0.35	-798.57782	1661.05615	1006.81152	-762.6394	1662.29883	1116.51294	-915.2074	1631.125	1038.24182	-881.37195	1632.34094	1154.81665	-964.0824	1428.7428	1063.39819	-1003.43604	1136.1814	1067.89514	-820.48761	1360.29309	1071.3656	-779.6709	1205.20947	1064.83154	-1022.94855	1232.09802	1134.67175	-870.37109	1395.99658	908.45911	-864.82996	1214.55615	817.06677	-843.67059	1063.63562	809.98651	-765.88892	977.93225	790.21887	-650.32642	903.76599	814.57819	-696.96844	876.76263	788.20569	-623.63354	834.12982	780.9942	-893.19574	1386.77466	1218.87048	-971.32452	1189.01526	1308.85181	-978.30939	1065.86804	1310.64282	-966.5025	947.93176	1346.45422	-895.52399	823.15411	1340.3645	-943.87726	829.61188	1373.07397	-916.55084	746.22571	1374.39368	-838.97028	924.25562	959.38733	-830.77869	931.17847	1176.45862	-1022.01587	942.09381	1021.39514	-1015.49011	943.12988	1166.75806	-923.17303	596.42151	917.76526	-962.96387	464.59235	932.8222	-1053.08362	296.5632	927.78168	-1122.08313	87.77113	987.77484	-1171.11719	65.4043	1040.6427	-980.5191	38.43306	981.37714	-811.33923	608.57605	1249.52795	-753.3493	464.2262	1221.44043	-749.72321	290.40515	1237.94629	-698.99231	85.31613	1200.39917	-729.63129	32.0706	1150.01392	-554.94824	88.75404	1202.47131	-774.03839	1697.8844	1096.17554	-1973.07178	1023.49048	3101.97363	-2012.50842	1022.11206	3140.57007	NaN	NaN	NaN
37	0.36	-792.19	1660.42859	1008.97894	-755.99219	1661.63416	1118.44189	-908.71936	1630.32825	1040.54993	-874.63324	1631.48584	1157.04382	-957.17212	1427.75671	1065.65759	-995.73315	1135.08936	1069.89478	-813.37146	1359.58057	1073.25305	-772.25757	1204.63013	1066.42871	-1015.38788	1230.8606	1136.58936	-863.72675	1395.44031	910.48431	-858.57471	1214.15369	819.01642	-837.1001	1063.16064	811.87555	-759.19415	977.56775	791.85834	-643.28534	903.6311	815.78705	-689.96161	876.4903	789.58899	-616.75793	833.99982	782.08759	-885.90784	1385.79749	1221.026	-963.633	1187.76306	1310.88318	-970.73639	1064.77209	1312.4834	-958.63379	946.68884	1347.93042	-887.82611	821.97864	1341.73303	-936.15851	828.41443	1374.52612	-908.87701	744.9903	1375.4209	-831.32928	923.65948	960.50616	-822.15802	930.36157	1177.54285	-1014.02777	941.30078	1023.27588	-1006.82324	941.89673	1168.60486	-917.32965	596.03369	918.46838	-958.25623	464.57947	933.54474	-1049.90503	297.31836	928.27185	-1121.49609	89.07852	987.65601	-1170.54956	67.14177	1040.58459	-980.49426	38.38119	981.28369	-801.50519	608.02557	1249.11963	-744.92035	463.05133	1221.63477	-743.92529	288.46381	1237.55469	-696.06848	83.29373	1199.65601	-728.55243	32.02031	1149.396	-551.94037	84.15459	1202.29651	-767.54846	1697.08923	1098.10266	-1972.93762	1023.99274	3101.93774	-2012.55115	1022.13977	3140.66431	NaN	NaN	NaN
38	0.37	-785.9281	1659.85681	1011.06659	-749.40009	1661.06689	1120.56836	-902.28314	1629.48486	1042.96838	-867.89539	1630.62964	1159.39001	-950.29919	1426.76648	1068.01257	-987.64917	1133.8175	1072.0719	-806.36035	1358.97595	1075.08435	-764.77161	1204.06299	1068.09424	-1007.75818	1229.55542	1138.67432	-857.11133	1394.87122	912.58563	-851.94336	1213.55579	821.06189	-830.32373	1062.46301	814.44946	-752.56982	977.10315	793.513	-636.51758	903.37213	816.95148	-683.2027	876.13849	791.03497	-609.74963	833.87524	783.14014	-878.69781	1384.8103	1223.11292	-955.94702	1186.52905	1312.80408	-963.00385	1063.61011	1314.2865	-951.03271	945.61664	1349.64429	-879.84021	820.82745	1343.29907	-928.17468	827.14624	1375.99316	-900.8808	743.8645	1377.11072	-823.39319	922.98779	961.63672	-813.39771	929.45905	1178.69104	-1005.98584	940.53528	1025.32288	-998.1452	940.75543	1170.5791	-911.37183	595.61371	919.22729	-952.86542	464.31012	934.26056	-1046.50562	298.16214	928.77753	-1120.7356	90.64017	987.53632	-1170.00586	69.25234	1040.43921	-980.74713	38.33213	980.91907	-792.03979	607.06842	1248.80115	-736.83801	461.53088	1221.90015	-738.59399	286.74521	1237.71411	-693.82874	81.42012	1198.79089	-727.31244	31.12793	1148.66711	-549.78369	78.89905	1202.04529	-761.02911	1696.61877	1100.26953	-1973.08362	1023.5752	3101.92896	-2012.57629	1022.02014	3140.6626	NaN	NaN	NaN
